<svg id="Layer_1" data-name="Layer 1" xmlns="http://www.w3.org/2000/svg" viewBox="0 0 182.08 250.65"><defs><style>.cls-1{fill:#ff3e3e;}.cls-2{fill:#0a0a0a;}.cls-3{fill:#352e2e;}.cls-4{fill:#fff;}</style></defs><title>logo-perspective</title><path class="cls-1" d="M0,104.26l0,82.91,59.56,58.55L60.69,18.09a209.5,209.5,0,0,1-28.8,47C11.64,89.49,0,96.49,0,104.26Z"/><polygon class="cls-2" points="63.06 19.59 74.28 8.89 178.58 76.78 178.58 200.58 63.06 240.8 63.06 19.59"/><path class="cls-3" d="M74.69,13.33,175.08,78.68V198.09L66.56,235.87V21.09l8.13-7.76m-.83-8.89L59.56,18.09V245.72l122.52-42.66V74.88L73.86,4.44Z"/><path class="cls-4" d="M156.49,110.18c0,9.38-4.36,18.76-15.7,20.16,12.87,2.19,17,10.77,17,21.15v20.95c0,16.76-14,25.94-35.77,25.94H85.17V85l15.7-17.15h21.82c21.15,0,33.8,9.78,33.8,25.74ZM109,121.56H122c6.76,0,11.34-2.6,11.34-9.58V96.41c0-7-4.58-9.77-11.34-9.77H109ZM134,150.29c0-7-4.58-10.38-11.34-10.38H109v39.51h13.74c6.76,0,11.34-2.79,11.34-9.77Z"/></svg>