<svg id="Layer_1" data-name="Layer 1" xmlns="http://www.w3.org/2000/svg" viewBox="0 0 412.46 118.47"><defs><style>.cls-1{fill:#fff;}</style></defs><title>logotype-black</title><path d="M40.53,57.27c0,5.49-2.33,11-8.41,11.79,6.89,1.29,9.11,6.31,9.11,12.38V93.71c0,9.81-7.47,15.18-19.15,15.18H2.34v-64L17.17,32.5h5.26c11.33,0,18.1,5.73,18.1,15.07ZM15.07,63.92h7c3.62,0,6.07-1.51,6.07-5.6V49.21c0-4.09-2.45-5.73-6.07-5.73h-7ZM28.5,80.74c0-4.08-2.45-6.07-6.07-6.07H15.07V97.8h7.36c3.62,0,6.07-1.64,6.07-5.73Z"/><path d="M74.61,91.37H60.36l-2.69,17.17H45.52L59.89,31.45h7.94L78.11,44l12,64.59H77.41ZM73,80.86,67.6,46.75,62.11,80.86Z"/><path d="M96.67,108.66V32.39h12.74l15.65,47.19V32.39h1.4l10.4,12.38v63.89h-12L108,59.13v49.53Z"/><path d="M164,31.68c11.8,0,19.51,4.56,19.51,16.12V92.19c0,11.56-7.71,16.12-19.51,16.12H144.5V44.07l14.83-12.39Zm6.78,18.11c0-5.49-3-7-7.13-7h-6.42V97.21h6.42c4.09,0,7.13-1.52,7.13-7Z"/><path d="M214.69,60.07V49.44c0-5-2.69-6.54-6.31-6.54s-6.54,1.52-6.54,6.54v5c0,4.09,1.28,5.61,4.91,7.59L215.62,67c7.13,4.32,11.57,7.59,11.57,15.54V93.36c0,11.56-7.13,15.53-18.81,15.53s-18.81-4-18.81-15.53V90.44l12.27-10.28V91.72c0,4.68,2.92,6.66,6.54,6.66s6.31-2,6.31-6.66v-6c0-4.09-1.05-6-4.67-8l-8.88-4.9c-7.24-4.09-11.57-7.48-11.57-15.54V47.45c0-10.86,8.3-15.18,18.46-15.18h.35c10.28,0,18.46,4.32,18.46,15.18V60.07Z"/><path d="M271.26,43H258.41v65.76H245.68V43H232.83V31.92h29Z"/><path d="M299.12,91.37H284.87l-2.69,17.17H270L284.4,31.45h7.94L302.62,44l12,64.59H301.92Zm-1.64-10.51-5.37-34.11-5.49,34.11Z"/><path d="M321.18,108.66V32.39h12.74l15.65,47.19V32.39H351l10.4,12.38v63.89h-12L332.51,59.13v49.53Z"/><path d="M388.51,31.68c11.8,0,19.51,4.56,19.51,16.12V92.19c0,11.56-7.71,16.12-19.51,16.12H369V44.07l14.83-12.39Zm6.78,18.11c0-5.49-3-7-7.13-7h-6.42V97.21h6.42c4.09,0,7.13-1.52,7.13-7Z"/><path d="M40.53,55.18c0,5.49-2.33,11-8.41,11.8,6.89,1.28,9.11,6.3,9.11,12.38V91.62c0,9.81-7.47,15.19-19.15,15.19H2.34v-64L17.17,30.42h5.26c11.33,0,18.1,5.72,18.1,15.06ZM15.07,61.84h7c3.62,0,6.07-1.52,6.07-5.61V47.12c0-4.09-2.45-5.72-6.07-5.72h-7ZM28.5,78.66c0-4.09-2.45-6.08-6.07-6.08H15.07V95.71h7.36c3.62,0,6.07-1.63,6.07-5.72Z"/><path d="M74.61,89.29H60.36l-2.69,17.17H45.52L59.89,29.37h7.94L78.11,41.86l12,64.6H77.41ZM73,78.77,67.6,44.67l-5.49,34.1Z"/><path d="M96.67,106.57V30.3h12.74l15.65,47.19V30.3h1.4l10.4,12.38v63.89h-12L108,57.05v49.52Z"/><path d="M164,29.6c11.8,0,19.51,4.55,19.51,16.12V90.1c0,11.57-7.71,16.12-19.51,16.12H144.5V42L159.33,29.6Zm6.78,18.1c0-5.49-3-7-7.13-7h-6.42V95.13h6.42c4.09,0,7.13-1.52,7.13-7Z"/><path d="M214.69,58V47.35c0-5-2.69-6.54-6.31-6.54s-6.54,1.52-6.54,6.54v5c0,4.08,1.28,5.6,4.91,7.59l8.87,4.9c7.13,4.33,11.57,7.6,11.57,15.54V91.27c0,11.57-7.13,15.54-18.81,15.54s-18.81-4-18.81-15.54V88.35l12.27-10.28V89.64c0,4.67,2.92,6.65,6.54,6.65s6.31-2,6.31-6.65v-6c0-4.09-1.05-6-4.67-7.94l-8.88-4.91c-7.24-4.09-11.57-7.47-11.57-15.53V45.37c0-10.87,8.3-15.19,18.46-15.19h.35c10.28,0,18.46,4.32,18.46,15.19V58Z"/><path d="M271.26,40.93H258.41v65.76H245.68V40.93H232.83V29.83h29Z"/><path d="M299.12,89.29H284.87l-2.69,17.17H270L284.4,29.37h7.94l10.28,12.49,12,64.6H301.92Zm-1.64-10.52-5.37-34.1-5.49,34.1Z"/><path d="M321.18,106.57V30.3h12.74l15.65,47.19V30.3H351l10.4,12.38v63.89h-12L332.51,57.05v49.52Z"/><path d="M388.51,29.6c11.8,0,19.51,4.55,19.51,16.12V90.1c0,11.57-7.71,16.12-19.51,16.12H369V42L383.84,29.6Zm6.78,18.1c0-5.49-3-7-7.13-7h-6.42V95.13h6.42c4.09,0,7.13-1.52,7.13-7Z"/><path class="cls-1" d="M40.53,47.41c0,5.49-2.33,11-8.41,11.8,6.89,1.29,9.11,6.31,9.11,12.38V83.86C41.23,93.67,33.76,99,22.08,99H2.34V35L17.17,22.65h5.26c11.33,0,18.1,5.72,18.1,15.07ZM15.07,54.07h7c3.62,0,6.07-1.52,6.07-5.61V39.35c0-4.09-2.45-5.72-6.07-5.72h-7ZM28.5,70.89c0-4.09-2.45-6.07-6.07-6.07H15.07V87.94h7.36c3.62,0,6.07-1.63,6.07-5.72Z"/><path class="cls-1" d="M74.61,81.52H60.36L57.67,98.69H45.52L59.89,21.6h7.94L78.11,34.1l12,64.59H77.41ZM73,71,67.6,36.9,62.11,71Z"/><path class="cls-1" d="M96.67,98.81V22.53h12.74l15.65,47.19V22.53h1.4l10.4,12.39V98.81h-12L108,49.28V98.81Z"/><path class="cls-1" d="M164,21.83c11.8,0,19.51,4.56,19.51,16.12V82.34c0,11.56-7.71,16.12-19.51,16.12H144.5V34.21l14.83-12.38Zm6.78,18.11c0-5.49-3-7-7.13-7h-6.42V87.36h6.42c4.09,0,7.13-1.52,7.13-7Z"/><path class="cls-1" d="M214.69,50.22V39.59c0-5-2.69-6.54-6.31-6.54s-6.54,1.51-6.54,6.54v5c0,4.09,1.28,5.61,4.91,7.59l8.87,4.91c7.13,4.32,11.57,7.59,11.57,15.53V83.51c0,11.56-7.13,15.53-18.81,15.53s-18.81-4-18.81-15.53V80.59l12.27-10.28V81.87c0,4.67,2.92,6.66,6.54,6.66s6.31-2,6.31-6.66v-6c0-4.08-1.05-6-4.67-7.94l-8.88-4.9c-7.24-4.09-11.57-7.48-11.57-15.54V37.6c0-10.86,8.3-15.18,18.46-15.18h.35c10.28,0,18.46,4.32,18.46,15.18V50.22Z"/><path class="cls-1" d="M271.26,33.16H258.41V98.92H245.68V33.16H232.83V22.07h29Z"/><path class="cls-1" d="M299.12,81.52H284.87l-2.69,17.17H270L284.4,21.6h7.94l10.28,12.5,12,64.59H301.92ZM297.48,71,292.11,36.9,286.62,71Z"/><path class="cls-1" d="M321.18,98.81V22.53h12.74l15.65,47.19V22.53H351l10.4,12.39V98.81h-12L332.51,49.28V98.81Z"/><path class="cls-1" d="M388.51,21.83C400.31,21.83,408,26.39,408,38V82.34c0,11.56-7.71,16.12-19.51,16.12H369V34.21l14.83-12.38Zm6.78,18.11c0-5.49-3-7-7.13-7h-6.42V87.36h6.42c4.09,0,7.13-1.52,7.13-7Z"/><path class="cls-1" d="M40.53,45.33c0,5.49-2.33,11-8.41,11.79,6.89,1.29,9.11,6.31,9.11,12.39V81.77C41.23,91.58,33.76,97,22.08,97H2.34V33L17.17,20.56h5.26c11.33,0,18.1,5.73,18.1,15.07ZM15.07,52h7c3.62,0,6.07-1.52,6.07-5.61V37.27c0-4.09-2.45-5.73-6.07-5.73h-7ZM28.5,68.8c0-4.08-2.45-6.07-6.07-6.07H15.07V85.86h7.36c3.62,0,6.07-1.64,6.07-5.73Z"/><path class="cls-1" d="M74.61,79.43H60.36L57.67,96.6H45.52L59.89,19.51h7.94L78.11,32l12,64.59H77.41ZM73,68.92,67.6,34.81,62.11,68.92Z"/><path class="cls-1" d="M96.67,96.72V20.45h12.74l15.65,47.19V20.45h1.4l10.4,12.38V96.72h-12L108,47.2V96.72Z"/><path class="cls-1" d="M164,19.75c11.8,0,19.51,4.55,19.51,16.12V80.25c0,11.57-7.71,16.12-19.51,16.12H144.5V32.13l14.83-12.38Zm6.78,18.1c0-5.49-3-7-7.13-7h-6.42V85.27h6.42c4.09,0,7.13-1.51,7.13-7Z"/><path class="cls-1" d="M214.69,48.13V37.5c0-5-2.69-6.54-6.31-6.54s-6.54,1.52-6.54,6.54v5c0,4.09,1.28,5.61,4.91,7.6l8.87,4.9c7.13,4.32,11.57,7.59,11.57,15.54V81.42C227.19,93,220.06,97,208.38,97s-18.81-4-18.81-15.54V78.5l12.27-10.28V79.79c0,4.67,2.92,6.65,6.54,6.65s6.31-2,6.31-6.65v-6c0-4.09-1.05-6-4.67-8L201.14,61c-7.24-4.09-11.57-7.48-11.57-15.54V35.52c0-10.87,8.3-15.19,18.46-15.19h.35c10.28,0,18.46,4.32,18.46,15.19V48.13Z"/><path class="cls-1" d="M271.26,31.08H258.41V96.84H245.68V31.08H232.83V20h29Z"/><path class="cls-1" d="M299.12,79.43H284.87L282.18,96.6H270L284.4,19.51h7.94L302.62,32l12,64.59H301.92Zm-1.64-10.51-5.37-34.11-5.49,34.11Z"/><path class="cls-1" d="M321.18,96.72V20.45h12.74l15.65,47.19V20.45H351l10.4,12.38V96.72h-12L332.51,47.2V96.72Z"/><path class="cls-1" d="M388.51,19.75c11.8,0,19.51,4.55,19.51,16.12V80.25c0,11.57-7.71,16.12-19.51,16.12H369V32.13l14.83-12.38Zm6.78,18.1c0-5.49-3-7-7.13-7h-6.42V85.27h6.42c4.09,0,7.13-1.51,7.13-7Z"/></svg>