<svg xmlns="http://www.w3.org/2000/svg" xmlns:xlink="http://www.w3.org/1999/xlink" viewBox="0 0 1919 1079.5"><defs><style>.cls-1,.cls-7,.cls-9{fill:none;}.cls-2{isolation:isolate;}.cls-3{mix-blend-mode:color-dodge;}.cls-4{clip-path:url(#clip-path);}.cls-5{opacity:0.3;}.cls-6{opacity:0.1;}.cls-7{stroke:#000;stroke-width:42px;}.cls-7,.cls-9{stroke-miterlimit:10;}.cls-8{opacity:0.25;}.cls-9{stroke:#fff;stroke-width:3px;}.cls-10{fill:url(#linear-gradient);}.cls-11{clip-path:url(#clip-path-2);}.cls-12,.cls-13{opacity:0.52;mix-blend-mode:overlay;}.cls-12{fill:url(#radial-gradient);}.cls-13{fill:url(#radial-gradient-2);}.cls-14{fill:#191919;}.cls-15{fill:#353535;}</style><clipPath id="clip-path"><rect class="cls-1" x="-542.65" y="-1448.01" width="1919" height="1080.25"/></clipPath><linearGradient id="linear-gradient" x1="841.24" y1="-22.03" x2="996.47" y2="715.76" gradientUnits="userSpaceOnUse"><stop offset="0" stop-color="#d12828"/><stop offset="1" stop-color="#c42333"/></linearGradient><clipPath id="clip-path-2"><rect class="cls-1" x="-0.5" y="-0.69" width="1919" height="1080.25"/></clipPath><radialGradient id="radial-gradient" cx="948.37" cy="407.29" r="1027.09" gradientUnits="userSpaceOnUse"><stop offset="0" stop-color="#020202" stop-opacity="0"/><stop offset="1" stop-color="#020202"/></radialGradient><radialGradient id="radial-gradient-2" cx="948.37" cy="406.54" r="1027.09" gradientUnits="userSpaceOnUse"><stop offset="0" stop-color="#fff" stop-opacity="0"/><stop offset="1" stop-color="#fff"/></radialGradient></defs><title>splash-bg</title><g class="cls-2"><g id="Layer_1" data-name="Layer 1"><g class="cls-3"><g class="cls-4"><g class="cls-5"><g class="cls-6"><circle class="cls-7" cx="406.91" cy="-466.82" r="551.9"/><circle class="cls-7" cx="370.79" cy="-558.91" r="1001.14"/><circle class="cls-7" cx="370.79" cy="-519.19" r="742.56"/></g><g class="cls-8"><circle class="cls-9" cx="379.06" cy="-466.82" r="551.9"/><circle class="cls-9" cx="342.94" cy="-558.91" r="1001.14"/><circle class="cls-9" cx="342.94" cy="-519.19" r="742.56"/></g></g></g></g><rect class="cls-10" x="-0.5" y="0.06" width="1920" height="1080"/><g class="cls-3"><g class="cls-11"><g class="cls-5"><g class="cls-6"><circle class="cls-7" cx="949.06" cy="980.5" r="551.9"/><circle class="cls-7" cx="949.06" cy="1002.39" r="409.35"/><circle class="cls-7" cx="912.94" cy="888.4" r="1001.14"/><circle class="cls-7" cx="912.94" cy="928.12" r="742.56"/><circle class="cls-7" cx="953.93" cy="1007.83" r="246.44"/><circle class="cls-7" cx="951.85" cy="1023.18" r="129.6"/></g><g class="cls-8"><circle class="cls-9" cx="921.22" cy="980.5" r="551.9"/><circle class="cls-9" cx="921.22" cy="1002.39" r="409.35"/><circle class="cls-9" cx="885.1" cy="888.4" r="1001.14"/><circle class="cls-9" cx="885.1" cy="928.12" r="742.56"/><circle class="cls-9" cx="926.08" cy="1007.83" r="246.44"/><circle class="cls-9" cx="924.01" cy="1023.18" r="129.6"/></g></g></g></g><rect class="cls-12" x="-0.5" y="0.06" width="1919" height="1079.5"/><rect class="cls-13" x="-0.5" y="-0.69" width="1919" height="1079.5"/><path class="cls-14" d="M0,930.37s613.73,149.75,1919,149.75c-513.27.28-1919-.28-1919-.28Z"/><path class="cls-15" d="M1918.5,930.37S1304.77,1080.12-.5,1080.12c513.27.28,1919-.28,1919-.28Z"/></g></g></svg>